<?xml version="1.0" encoding="utf-8"?>
<!-- Generator: Adobe Illustrator 15.0.0, SVG Export Plug-In . SVG Version: 6.00 Build 0)  -->
<!DOCTYPE svg PUBLIC "-//W3C//DTD SVG 1.1//EN" "http://www.w3.org/Graphics/SVG/1.1/DTD/svg11.dtd">
<svg version="1.1"  xmlns="http://www.w3.org/2000/svg" xmlns:xlink="http://www.w3.org/1999/xlink" x="0px" y="0px"
	 width="48px" height="48px" viewBox="0 0 48 48" enable-background="new 0 0 48 48" xml:space="preserve">
<g>
	<path fill="#FFCC80" d="M20.985,27.086c0,1.604,1.35,2.914,3,2.914c1.651,0,3-1.311,3-2.914V6.912c0-1.603-1.349-2.912-3-2.912
		c-1.65,0-3,1.31-3,2.912V27.086z"/>
	<path fill="#FFCC80" d="M32.984,29.086c0,1.604,1.351,2.914,3,2.914c1.652,0,3-1.311,3-2.914v-5.174c0-1.603-1.348-2.912-3-2.912
		c-1.649,0-3,1.31-3,2.912V29.086z"/>
	<path fill="#FFCC80" d="M26.984,29.086c0,1.604,1.351,2.914,3,2.914c1.652,0,3-1.311,3-2.914L33,22.912C33,21.31,31.65,20,30,20
		s-3,1.31-3,2.912L26.984,29.086z"/>
	<path fill="#FFCC80" d="M26.984,24L27,23h-6.015L17.02,10.437c-0.311-1.626-1.881-2.703-3.51-2.383
		c-1.627,0.311-2.694,1.882-2.383,3.51l3.838,14.311l-3.63,3.63c-0.921,0.614-1.38,1.647-1.318,2.679
		c-0.06,0.885,0.233,1.836,0.968,2.817l2.692,3.847c2.766,2.769,4.69,4.873,8.393,5.107C22.287,43.98,22.509,44,22.741,44h6.879
		c5.101,0,9.38-4.057,9.38-9.154c0,0,0-4.83,0-10.846H26.984z"/>
</g>
<g>
	<path fill="#FFEBEE" d="M34,28.9c0.012,1.172,0.914,2.11,2.021,2.1c1.104-0.014,1.99-0.975,1.978-2.143
		C37.986,27.686,33.988,27.729,34,28.9"/>
	<path fill="#FFEBEE" d="M28,28.9c0.012,1.172,0.914,2.11,2.021,2.1c1.104-0.014,1.99-0.975,1.978-2.143
		C31.986,27.686,27.988,27.729,28,28.9"/>
</g>
<g>
	<path fill="#F2A86B" d="M38.984,29.086c0,1.604-1.348,2.914-3,2.914c-1.649,0-3-1.311-3-2.914c0,1.01-0.535,1.9-1.344,2.425
		C32.49,33.055,34.105,34,35.984,34c1.133,0,2.166-0.386,3.006-1.012C38.994,31.043,38.984,29.086,38.984,29.086z"/>
	<path fill="#F2A86B" d="M32.984,29.086c0,1.604-1.348,2.914-3,2.914c-1.649,0-3-1.311-3-2.914l-1.18-0.051
		c-0.152,0.412-0.385,0.785-0.688,1.091C25.6,32.488,27.591,34,29.984,34c1.133,0,2.166-0.386,3.006-1.012
		C32.994,31.043,32.984,29.086,32.984,29.086z"/>
	<path fill="#F2A86B" d="M15,25.744l-0.034,0.129l0.37-0.369C15.829,25.176,16.408,25,17,25h6c1.657,0,3,1.343,3,3s-1.343,3-3,3
		h-4.092L21,33h2c2.757,0,5-2.243,5-5s-2.243-4-5-4c0,0,0.971,0-2.015,0C17,24,15.787,25.264,15,25.744z"/>
	<path fill="#F2A86B" d="M20.835,31h-1.927l-0.744,0.611c0,0,7.289,4.378,7.799,11.389l0.012,1H28C28,36.85,23.312,32.695,20.835,31
		z"/>
</g>
</svg>
